<?xml version="1.0" encoding="utf-8"?>
<!-- Generator: Adobe Illustrator 14.0.0, SVG Export Plug-In . SVG Version: 6.00 Build 43363)  -->
<!DOCTYPE svg PUBLIC "-//W3C//DTD SVG 1.1//EN" "http://www.w3.org/Graphics/SVG/1.1/DTD/svg11.dtd">
<svg version="1.1" id="レイヤー_1" xmlns="http://www.w3.org/2000/svg" xmlns:xlink="http://www.w3.org/1999/xlink" x="0px"
	 y="0px" width="232px" height="80px" viewBox="0 0 232 80" enable-background="new 0 0 232 80" xml:space="preserve">
<path fill="#FFFFFF" d="M211.018,15.086l-0.758,0.918c3.938,4.255,6.133,9.019,6.786,14.838c0.423,3.618-0.021,9.088-1.056,12.338
	c-0.533,1.668-0.896,1.938-2.778,2.016c-0.844,0.021-5.002-0.047-12.444-0.293l-0.168,1.399c2.922,0.738,4.522,1.248,6.463,1.865
	c3.625,1.157,5.144,1.933,5.986,3.069c0.928,1.169,1.378,1.505,2.221,1.773c2.529,0.807,5.082-1.379,6.429-5.594
	C225.561,35.298,220.855,20.932,211.018,15.086z"/>
<path fill="#FCEE21" d="M203.316,39.414c1.606-1.867,3.562-3.254,5.871-4.158c0.328,2.96-7.539,6.749-9.521,7.877
	C199.18,43.102,202.521,39.864,203.316,39.414"/>
<path fill="#FCEE21" d="M229.645,21.991c1.115,1.97,3.344,6.234-0.555,7.723c-0.311-1.95,0.02-3.784,0.991-5.502
	c-1.715-0.418-3.252-1.192-4.61-2.321C226.872,21.541,228.264,21.575,229.645,21.991"/>
<path fill="#FCEE21" d="M218.057,39.274c4.387-1.953,5.25-6.442,9.252-6.9C227.016,34.775,218.596,40.232,218.057,39.274"/>
<path fill="#FCEE21" d="M212.854,25.766c-5.064,1.141-8.267,4.283-12.449,7.07c-0.131-0.231,4.647-4.585,1.147-3.215
	c-4.339,1.699-1.61-3.474-0.677-4.881C203.199,21.235,211.712,23.745,212.854,25.766 M200.234,29.639
	c1.248-1.208,2.466-2.448,3.648-3.719C203.037,26.252,198.59,23.978,200.234,29.639"/>
<path fill="#FCEE21" d="M203.316,39.414c-0.711-2.268,7.834-7.469,9.067-4.327c-2.237,2.238-4.815,3.977-7.737,5.218
	c1.721-1.497,3.233-3.18,4.541-5.049C206.88,36.16,204.924,37.547,203.316,39.414"/>
<path fill="#FCEE21" d="M194.872,43.389c-0.776,0.387-3.205,5.401-4.712,1.851C191.501,43.98,193.07,43.366,194.872,43.389"/>
<path fill="#FCEE21" d="M202.779,41.365c-0.452,2.727-5.965,3.172-7.823,3.619c-0.817-1.211,9.294-6.102,7.737-5.217
	c0.836,1.059-4.928,3.244-3.027,3.365C200.703,42.544,201.742,41.955,202.779,41.365"/>
<path fill="#FCEE21" d="M202.202,24.405c1.298,2.653,1.627,2.632-1.968,5.233C199.607,27.427,200.264,25.684,202.202,24.405"/>
<path fill="#FCEE21" d="M227.309,32.374c-6.41,0.733-14.873,10.919-21.803,13.387c-9.535,3.395-21.337,7.368-31.697,5.474
	c-1.656-4.832,48.381-35.626,56.272-27.021C230.169,26.434,227.146,30.772,227.309,32.374 M204.646,40.305
	c2.508-1.76,6.754-3.038,7.737-5.218c-0.784-1.998-18.69,9.299-22.225,10.151C191.884,49.301,203.215,41.117,204.646,40.305"/>
<path fill="#FCEE21" d="M225.471,21.891c-2.145,0.102-12.287,4.458-12.972,3.252C216.264,22.47,220.816,20.642,225.471,21.891"/>
<path fill="#FCEE21" d="M201.52,47.843c0.875-0.666,7.291-4.554,8.176-2.997C207.176,46.423,204.451,47.422,201.52,47.843"/>
<path fill="#FCEE21" d="M200.404,32.836c-2.283,1.296-4.565,2.591-6.848,3.888C191.893,33.805,198.751,29.908,200.404,32.836"/>
<path fill="#FCEE21" d="M194.872,43.389c0.812-0.875,1.759-1.14,2.842-0.794c-2.798,3.364-2.435,0.201-1.159,2.306
	c-0.865,0.578-1.813,0.842-2.845,0.793C192.23,44.621,192.62,43.852,194.872,43.389"/>
<path fill="#FCEE21" d="M195.424,35.663c-0.049,1.629-6.699,5.592-7.469,4.242C190.443,38.491,192.936,37.077,195.424,35.663"/>
<path fill="#FCEE21" d="M189.555,39.821c-1.714,2.341-8.316,6.091-11.205,6.363C182.084,44.062,185.818,41.943,189.555,39.821"/>
<path fill="#FCEE21" d="M178.35,46.186c-6.797,2.752,9.25-6.913,9.959-5.656C184.988,42.414,181.669,44.299,178.35,46.186"/>
<path fill="#FCEE21" d="M193.557,36.724c-2.058,1.17-17.127,10.426-17.781,9.276C177.749,44.879,192.9,35.571,193.557,36.724"/>
<path fill="#FFFFFF" d="M24.814,28.225c0.659-0.917,1.341-1.815,2.03-2.71c1.211-1.572,1.37-0.701,2.78,0.251
	c0.969,0.655,4.415,2.21,3.575,3.716c-0.854,1.529-1.672,0.997-1.545,3c0.05,0.789,0.1,1.578,0.153,2.366
	c0.115,1.709,0.274,3.414,0.434,5.119c0.271,2.895,0.57,5.784,0.883,8.674c0.237,2.187,1.105,5.012,0.709,7.19
	c-0.444,2.442-6.783,3.022-6.572-0.591c-4.569,0.375-9.139,0.751-13.708,1.126c0.697,3.362-2.536,4.046-5.428,3.743
	c-2.408-0.252-1.629-8.748-1.74-10.562c-0.34-5.553-0.819-11.095-1.274-16.64c-0.702,0.772-3.528,4.19-4.181,3.718
	c-0.483-0.351,2.89-7.105,3.295-8.173c2.278-6,4.222-12.477,4.562-18.924c2.822,0.352,8.444,0.057,10.661,1.973
	c1.099,0.949-0.935,1.787-1.545,1.992c-1.87,0.628-2.207,2.479-3.161,4.134c1.383-0.113,4.062,0.225,5.254-0.432
	c1.11-1.309,2.246-2.581,3.443-3.811c1.894,1.217,3.814,2.425,5.602,3.796c1.148,0.88,2.342,1.98,0.352,2.759
	c-2.392,0.936-3.304,1.034-5.011,3.133c-1.541,1.895-3.106,3.769-4.749,5.576C21.361,28.509,23.088,28.366,24.814,28.225
	 M10.902,61.414c1.639,3.838,1.917,8.294,0.895,12.344c-0.544,2.157-2.884,7.258-5.91,4.866c-4.151-3.279-0.915-6.853,1.451-9.513
	c1.121-1.262,1.976-2.702,2.394-4.346C10.066,63.452,9.539,61.669,10.902,61.414 M16.666,28.895
	c1.188-3.295,2.248-6.639,3.007-10.061c-1.715,0.141-3.43,0.281-5.145,0.423c-1.386,0.113-4.403,7.237-5.45,8.728
	C11.897,29.466,13.464,29.157,16.666,28.895 M11.466,30.931c0.29,3.528,0.58,7.058,0.869,10.586c1.32-0.108,2.64-0.218,3.96-0.326
	c-0.221-2.694-0.443-5.391-0.664-8.085C15.357,29.776,14.748,30.661,11.466,30.931 M16.426,42.79
	c-3.119,0.256-4.031-0.543-3.771,2.635c0.256,3.114,0.511,6.228,0.767,9.343c3.119-0.257,4.031,0.543,3.771-2.636
	C16.938,49.018,16.682,45.904,16.426,42.79 M15.142,60.759c3.406,3.207,11.776,12.333,3.652,15.935
	c-3.675,1.63-2.404-4.855-2.466-6.674C16.261,68.027,14.344,61.613,15.142,60.759 M21.431,59.859
	c4.24,2.383,13.022,7.785,6.9,13.439c-3.185,2.941-3.525-3.709-3.999-5.46C23.894,66.219,20.746,60.646,21.431,59.859
	 M22.083,40.716c2.588-0.213,4.037,0.607,3.811-2.139c-0.24-2.924-0.48-5.848-0.72-8.771c-2.588,0.213-4.037-0.607-3.811,2.139
	C21.603,34.868,21.842,37.792,22.083,40.716 M22.214,42.314c0.319,3.885,0.638,7.769,0.957,11.651c1.32-0.108,2.64-0.217,3.96-0.325
	c-0.236-2.877-0.473-5.754-0.709-8.631C26.118,41.309,25.93,42.01,22.214,42.314 M28.26,58.991c2.822,0.993,6.472,2.071,8.53,4.409
	c1.59,1.809,0.983,5.328-1.066,6.594c-2.198,1.355-2.839-2.574-3.309-3.717C31.625,64.361,28.107,60.441,28.26,58.991
	 M57.312,57.064c1.242-0.102,2.484-0.203,3.727-0.306c1.67-0.137,3.356-3.668,4.286-5.043c1.227-1.815,1.42-0.817,2.981,0.201
	c1.151,0.752,2.278,1.534,3.372,2.368c0.524,0.398,4.317,2.855,1.551,3.083c-5.262,0.432-10.523,0.864-15.785,1.296
	c0.363,4.417,0.726,8.835,1.088,13.252c1.125-0.093,2.249-0.186,3.374-0.277c2.445-0.201,2.503-0.152,4.016-2.264
	c0.593-0.826,1.196-1.646,1.803-2.462c1.106-1.483,0.904-2.429,2.703-1.181c2.214,1.535,4.374,3.144,6.54,4.746
	c1.701,1.802-1.692,1.672-2.646,1.75c-2.948,0.241-5.895,0.483-8.843,0.727c-6.776,0.557-13.553,1.113-20.33,1.67
	c-1.258,0.104-2.517,0.195-3.773,0.311c-2.556,0.209-5.08,0.61-7.6,1.078c-2.196,0.406-1.777-0.707-2.342-2.64
	c6.679,0.263,13.219-0.319,19.862-0.864c-0.355-4.33-0.711-8.66-1.067-12.99c-0.047-0.568-4.015,0.063-4.742,0.127
	c-2.221,0.184-4.425,0.455-6.625,0.81c-2.084,0.337-1.634-0.624-2.099-2.47c4.48,0.285,8.856,0.039,13.313-0.327
	c-0.108-1.317-0.849-12.271-1.16-12.246c-1.255,0.103-5.389-0.288-5.274,1.116c0.22,2.685,0.708,4.361-2.502,4.83
	c-0.938,0.139-4.075,0.957-4.621-0.242c-0.903-1.982-0.403-5.52-0.526-7.708c-0.208-3.716-0.439-7.43-0.731-11.141
	c-0.604-7.663-1.348-15.33-2.267-22.963c3.505,1.193,6.715,3.59,10.424,3.285c4.031-0.331,8.063-0.662,12.095-0.993
	c1.069-0.088,2.139-0.176,3.208-0.264c2.343-0.192,2.099-5.779,5.046-3.949c1.185,0.735,5.72,2.836,5.838,4.282
	c0.085,1.033-1.59,1.924-2.261,2.331c0.091,1.722,0.189,3.442,0.303,5.163c0.552,8.331,1.479,16.643,2.366,24.943
	c0.176,1.646,0.288,2.887-1.577,3.408c-1.648,0.463-5.723,1.725-6.076-0.828c-0.609-1.443,0.658-2.432-1.265-2.272
	c-1.598,0.131-3.195,0.263-4.793,0.394C56.641,48.893,56.977,52.979,57.312,57.064 M46.488,13.948c-1.828,0.15-3.655,0.3-5.483,0.45
	c0.288,3.503,0.575,7.007,0.863,10.51c0.03,0.373,0.09,3.365,0.428,3.337c1.777-0.146,3.553-0.292,5.33-0.438
	C47.247,23.188,46.867,18.568,46.488,13.948 M47.757,29.407c-1.828,0.15-3.656,0.3-5.483,0.45c0.242,2.948,0.484,5.896,0.727,8.845
	c0.137,1.673,0.274,3.346,0.412,5.019c0.089,1.084,1.914,0.377,2.785,0.305c0.462-0.036,2.767,0.088,2.721-0.467
	c-0.123-1.502-0.247-3.004-0.37-4.508C48.285,35.836,48.021,32.622,47.757,29.407 M60.724,26.732
	c-0.379-4.62-0.758-9.239-1.138-13.859c-1.955,0.16-3.909,0.321-5.864,0.481c0.307,3.736,0.614,7.472,0.92,11.208
	c0.068,0.826-0.275,2.691,0.729,2.609C57.156,27.025,58.94,26.879,60.724,26.732 M56.174,43.207c1.955-0.16,3.909-0.321,5.863-0.48
	c-0.305-3.716-0.61-7.431-0.915-11.146c-0.028-0.345-0.103-3.264-0.404-3.239c-1.909,0.157-3.818,0.314-5.727,0.471
	C55.386,33.61,55.78,38.409,56.174,43.207"/>
<path fill="#FFFFFF" d="M90.631,47.991c3.157-1.107,5.186-2.097,7.362-3.732c2.922-2.194,4.5-4.305,5.896-7.883
	c-1.127,0.507-2.208,0.687-3.515,0.501c-4.138-0.588-6.755-4.847-6.036-9.911c0.726-5.118,4.457-8.31,8.976-7.669
	c1.144,0.163,1.773,0.419,3.19,1.398c0.216-1.525,0.278-1.961,0.371-2.615c0.185-1.306,0.247-1.742,0.463-3.654
	c-7.419-0.165-13.236,0.509-17.621,2.054c-0.404,0.108-1.135,0.171-1.625,0.102c-1.579-0.224-3.042-1.654-4.257-4.048
	c-0.811-1.726-1.24-3.397-1.078-4.541c0.031-0.218,0.124-0.482,0.35-0.895c1.262,2.456,2.92,3.691,5.37,4.039
	c1.634,0.231,1.634,0.231,11.526,0.192c2.225-0.018,3.881,0.052,7.645,0.141c0.479-4.153,0.454-5.935-0.162-7.077
	c-0.701-1.321-1.962-2.223-4.412-2.959c1.104-0.731,1.842-0.849,3.584-0.602c2.069,0.294,4.146,0.922,6.021,1.799
	c2.022,1.009,2.879,2.02,2.701,3.272c-0.077,0.543-0.24,0.908-0.784,1.609c-1.025,1.354-1.204,1.829-1.793,4.022
	c7.661,0.422,8.104,0.429,10.071-0.126c1.042-0.296,1.603-0.328,2.418-0.212c1.47,0.209,3.719,1.584,4.957,3.036
	c0.623,0.7,0.817,1.283,0.694,2.154c-0.139,0.98-1.049,1.518-2.191,1.355c-0.49-0.07-1.292-0.295-3.159-0.838
	c-3.049-0.821-5.368-1.316-8.852-1.812c-1.851-0.263-2.785-0.34-4.659-0.439c-0.627,2.855-1.293,6.371-1.579,8.386
	c-0.031,0.218-0.093,0.653-0.162,1.143c1.037,2.87,1.256,4.844,0.831,7.84c-0.881,6.206-4.229,11.008-9.678,13.79
	c-2.814,1.434-5.356,2.127-10.683,2.871L90.631,47.991z M102.817,20.839c-2.178-0.31-4.19,1.736-4.608,4.678
	c-0.487,3.43,0.807,6.058,3.203,6.397c2.123,0.302,3.623-1.264,4.048-4.258C106.031,23.627,105.049,21.155,102.817,20.839z"/>
<path fill="#FFFFFF" d="M135.891,31.368c1.164-0.119,2.93,0.334,4.551,1.164c2.192,1.088,3.556,2.487,3.684,3.741
	c0.113,1.119-0.369,1.711-2.631,3.479c-3.443,2.612-5.674,4.693-8.113,7.385c-1.697,1.982-2.501,3.42-2.393,4.495
	c0.068,0.673,0.545,1.347,1.572,2.103c0.928,0.675,0.928,0.675,4.396,2.765c2.214,1.312,5.191,3.45,7.115,5.021
	c2.125,1.772,3.107,3.438,3.318,5.496c0.246,2.418-0.74,4.281-2.308,4.441c-1.03,0.104-1.622-0.378-2.511-2.007
	c-2.049-3.681-4.688-6.94-8.858-11.039c-2.856-2.738-3.358-3.231-3.889-3.991c-0.638-0.93-0.939-1.668-1.03-2.564
	c-0.118-1.162,0.216-2.326,0.975-3.762c0.883-1.537,0.883-1.537,4.805-7.455c2.162-3.205,3.139-5.159,3.043-6.099
	c-0.055-0.538-0.432-1.133-1.033-1.704c-0.547-0.487-0.598-0.527-1.878-1.12C135.225,31.48,135.443,31.413,135.891,31.368z"/>
<path fill="#FFFFFF" d="M187.77,38.016c-0.803,1.499-0.803,1.499-1.791,3.271c-3.209,5.925-3.209,5.925-5.184,9.604
	c-1.359,2.52-1.359,2.52-2.042,3.611c-1.644-1.236-2.446-2.427-3.481-5.156c-1.033-2.729-1.633-6.074-1.722-9.703
	c-0.067-2.755,0.242-5.92,0.916-10.036c0.109-0.809,0.16-1.349,0.15-1.751c-0.039-1.545-1.05-3.335-3.032-5.235
	c-1.984-1.968-3.885-3.197-4.917-3.172c-0.258,0.007-0.388,0.01-0.58,0.014c2.865,3.693,3.354,5.228,3.572,11.472
	c0.177,7.188,0.282,8.865,0.741,11.811c0.776,5.357,2.44,10.089,4.713,13.324c2.076,3.043,5.429,5.58,7.234,5.535
	c0.772-0.018,1.398-0.772,1.375-1.713c-0.007-0.336-0.08-0.737-0.152-1.072c-0.432-1.736-0.432-1.736-0.443-2.272
	c-0.064-2.688,1.189-6.684,5.62-18.083L187.77,38.016z"/>
<path fill="#FCEE21" d="M167.502,46.266c4.705,0.09,2.459,1.506,3.361,4.143c3.225-1.01,6.488-1.184,9.791-0.518
	c-7.18-1.055-12.7,7.348-19.6,8.104c-1.102-4.402-2.25-8.793-3.447-13.171c1.727,4.458,9.438,6.091,12.72,2.861
	C169.385,47.212,168.443,46.739,167.502,46.266"/>
<path fill="#FCEE21" d="M173.707,44.758c-2.154,0.783-5.443,4.904-10.121,1.715c0.159,1.524,1.1,2,2.825,1.42
	c0.786,1.428-9.819,1.549-3.259-2.184c-1.17-0.979-2.51-1.562-4.021-1.751C160.5,43.771,173.328,44.092,173.707,44.758"/>
<path fill="#FFFFFF" d="M167.502,46.266c0.941,0.475,1.883,0.946,2.825,1.422c-1.257,1.235-7.595-0.58-6.741-1.215
	C164.891,46.402,166.197,46.334,167.502,46.266"/>
<path fill="#FCEE21" d="M159.132,43.958c1.511,0.188,2.851,0.772,4.021,1.751c-4.907,2.792-0.33,1.229,0.97,3.482
	C157.637,52.559,158.6,42.258,159.132,43.958"/>
<path fill="#FFFFFF" d="M215.867,44.104c-0.643,1.629-1.024,1.875-2.906,1.826c-0.843-0.035-4.986-0.381-12.398-1.121l-0.258,1.383
	c2.863,0.933,4.428,1.548,6.322,2.295c3.538,1.396,5.003,2.269,5.768,3.464c0.85,1.225,1.275,1.591,2.099,1.915
	c2.471,0.975,5.163-1.034,6.786-5.151"/>
<path fill="#FCEE21" d="M211.493,43.809c3.877-1.264,7.35-3.235,10.419-5.917c7.509,13.307-5.819,8.209-9.794,10.483
	C211.257,47.773,212.251,45.129,211.493,43.809"/>
<path fill="#FCEE21" d="M211.823,48.504c2.442-0.312,7.005-1.534,8.065,0.34C218.421,49.677,212.992,50.658,211.823,48.504"/>
<rect id="_x3C_スライス_x3E__1_" fill="none" width="232" height="80"/>
</svg>
